<svg width="600" height="567" viewBox="0 0 600 567" fill="none" xmlns="http://www.w3.org/2000/svg">
<path d="M436.495 227.865L415.281 219.775V240.562L436.495 248.09V227.865Z" fill="#171E28"/>
<path d="M436.495 227.865L484.045 211.685V231.236L460.27 239.663L436.495 248.09V227.865Z" fill="#11151E"/>
<path d="M460.636 204.944L415.281 219.775L436.495 227.865L484.045 211.685L460.636 204.944Z" fill="#1E2633"/>
<path d="M445.618 247L463.82 241.69V264.374L445.618 271.011V247Z" fill="#171E28"/>
<path d="M445.618 247L427.416 241.69V264.624L445.618 271.011V247Z" fill="#11151E"/>
<path d="M445.618 237.303L463.82 241.69L445.618 247L427.416 241.69L445.618 237.303Z" fill="#1E2633"/>
<path d="M388.315 248.385L419.326 240.102V275.488L388.315 285.843V248.385Z" fill="#171E28"/>
<path d="M388.315 248.385L357.303 240.102V275.878L388.315 285.843V248.385Z" fill="#11151E"/>
<path d="M388.315 233.258L419.326 240.102L388.315 248.385L357.303 240.102L388.315 233.258Z" fill="#1E2633"/>
<path d="M503.595 105.169L543.371 92.3595V137.978L503.595 153.708V105.169Z" fill="#171E28"/>
<path d="M503.595 105.169L463.82 92.3595V138.57L503.595 153.708V105.169Z" fill="#11151E"/>
<path d="M503.595 80.8989L543.371 92.3595L503.595 105.169L463.82 92.3595L503.595 80.8989Z" fill="#1E2633"/>
<path d="M517.753 161.124L548.764 149.663V177.303L517.753 190.112V161.124Z" fill="#171E28"/>
<path d="M517.753 161.124L486.742 149.663V177.303L517.753 190.112V161.124Z" fill="#11151E"/>
<path d="M517.753 137.528L548.764 149.663L517.753 161.124L486.742 149.663L517.753 137.528Z" fill="#1E2633"/>
<path d="M503.696 193.483L524.494 186.067V206.854L503.696 214.382V193.483Z" fill="#171E28"/>
<path d="M503.696 193.483L457.079 177.978V197.528L503.696 214.382V193.483Z" fill="#11151E"/>
<path d="M480.029 171.236L524.494 186.067L503.696 193.483L457.079 177.978L480.029 171.236Z" fill="#1E2633"/>
<path d="M519.775 217.921L550.112 208.062V239.831L519.775 250.787V217.921Z" fill="#171E28"/>
<path d="M519.775 217.921L489.438 208.062V240.244L519.775 250.787V217.921Z" fill="#11151E"/>
<path d="M519.775 198.202L550.112 208.062L519.775 217.921L489.438 208.062L519.775 198.202Z" fill="#1E2633"/>
<path d="M496.854 256.517L525.843 244.888V282.36L496.854 295.281V256.517Z" fill="#171E28"/>
<path d="M496.854 256.517L467.865 244.888V282.846L496.854 295.281V256.517Z" fill="#11151E"/>
<path d="M496.854 233.258L525.843 244.888L496.854 256.517L467.865 244.888L496.854 233.258Z" fill="#1E2633"/>
<path d="M437.528 288.876L466.517 277.247V314.719L437.528 327.64V288.876Z" fill="#171E28"/>
<path d="M437.528 288.876L408.539 277.247V315.206L437.528 327.64V288.876Z" fill="#11151E"/>
<path d="M437.528 265.618L466.517 277.247L437.528 288.876L408.539 277.247L437.528 265.618Z" fill="#1E2633"/>
<path d="M514.382 306.404L543.371 294.775V332.247L514.382 345.169V306.404Z" fill="#171E28"/>
<path d="M514.382 306.404L485.393 294.775V332.734L514.382 345.169V306.404Z" fill="#11151E"/>
<path d="M514.382 283.146L543.371 294.775L514.382 306.404L485.393 294.775L514.382 283.146Z" fill="#1E2633"/>
<path d="M113.933 430.281L142.921 415.365V463.427L113.933 480V430.281Z" fill="#171E28"/>
<path d="M113.933 430.281L84.9438 415.365V464.051L113.933 480V430.281Z" fill="#11151E"/>
<path d="M113.933 400.449L142.921 415.365L113.933 430.281L84.9438 415.365L113.933 400.449Z" fill="#1E2633"/>
<path d="M28.9888 218.756L48.5394 211.418V243.406L28.9888 252.135V218.756Z" fill="#171E28"/>
<path d="M28.9888 218.756L9.43823 211.418V243.822L28.9888 252.135V218.756Z" fill="#11151E"/>
<path d="M28.9888 204.944L48.5394 211.418L28.9888 218.756L9.43823 211.418L28.9888 204.944Z" fill="#1E2633"/>
<path d="M105.843 218.756L125.393 211.418V243.406L105.843 252.135V218.756Z" fill="#171E28"/>
<path d="M105.843 218.756L86.2921 211.418V243.822L105.843 252.135V218.756Z" fill="#11151E"/>
<path d="M105.843 204.944L125.393 211.418L105.843 218.756L86.2921 211.418L105.843 204.944Z" fill="#1E2633"/>
<path d="M76.1798 237.64L105.169 226.011V263.483L76.1798 276.404V237.64Z" fill="#171E28"/>
<path d="M76.1798 237.64L47.191 226.011V263.97L76.1798 276.404V237.64Z" fill="#11151E"/>
<path d="M76.1798 214.382L105.169 226.011L76.1798 237.64L47.191 226.011L76.1798 214.382Z" fill="#1E2633"/>
<path d="M156.568 241.348L176.629 231.236V258.876L156.568 268.989V241.348Z" fill="#171E28"/>
<path d="M156.568 241.348L115.955 225.843V252.135L156.568 268.989V241.348Z" fill="#11151E"/>
<path d="M135.506 215.73L176.629 231.236L156.568 241.348L115.955 225.843L135.506 215.73Z" fill="#1E2633"/>
<path d="M113.933 253.82L142.921 242.191V279.663L113.933 292.584V253.82Z" fill="#171E28"/>
<path d="M113.933 253.82L84.9438 242.191V280.15L113.933 292.584V253.82Z" fill="#11151E"/>
<path d="M113.933 230.562L142.921 242.191L113.933 253.82L84.9438 242.191L113.933 230.562Z" fill="#1E2633"/>
<path d="M200.899 256.517L233.258 240.843V291.348L200.899 308.764V256.517Z" fill="#171E28"/>
<path d="M200.899 256.517L168.539 240.843V292.004L200.899 308.764V256.517Z" fill="#11151E"/>
<path d="M200.899 225.169L233.258 240.843L200.899 256.517L168.539 240.843L200.899 225.169Z" fill="#1E2633"/>
<path d="M156.404 272.809L188.764 261.898V300.757L156.404 314.157V272.809Z" fill="#171E28"/>
<path d="M156.404 272.809L124.045 261.898V301.262L156.404 314.157V272.809Z" fill="#11151E"/>
<path d="M156.404 252.135L188.764 261.898L156.404 272.809L124.045 261.898L156.404 252.135Z" fill="#1E2633"/>
<path d="M77.5281 296.124L106.517 286.264V318.034L77.5281 328.989V296.124Z" fill="#171E28"/>
<path d="M77.5281 296.124L48.5393 286.264V318.446L77.5281 328.989V296.124Z" fill="#11151E"/>
<path d="M77.5281 276.404L106.517 286.264L77.5281 296.124L48.5393 286.264L77.5281 276.404Z" fill="#1E2633"/>
<path d="M224.494 113.933L244.045 106.517V127.303L224.494 134.831V113.933Z" fill="#171E28"/>
<path d="M224.494 113.933L180.674 98.427V117.978L224.494 134.831V113.933Z" fill="#11151E"/>
<path d="M202.247 91.6854L244.045 106.517L224.494 113.933L180.674 98.427L202.247 91.6854Z" fill="#1E2633"/>
<path d="M341.798 153.708L362.697 143.745V179.226L341.798 188.09V153.708Z" fill="#171E28"/>
<path d="M341.798 153.708L320.899 143.745V179.687L341.798 188.09V153.708Z" fill="#11151E"/>
<path d="M341.798 134.831L362.697 143.745L341.798 153.708L320.899 143.745L341.798 134.831Z" fill="#1E2633"/>
<path d="M331.848 174.41L351.91 165.706V189.498L331.848 198.202V174.41Z" fill="#171E28"/>
<path d="M331.848 174.41L291.236 161.064V183.695L331.848 198.202V174.41Z" fill="#11151E"/>
<path d="M310.787 152.36L351.91 165.706L331.848 174.41L291.236 161.064L310.787 152.36Z" fill="#1E2633"/>
<path d="M430.276 337.079L450.337 326.966V354.607L430.276 364.719V337.079Z" fill="#171E28"/>
<path d="M430.276 337.079L389.663 321.573V347.865L430.276 364.719V337.079Z" fill="#11151E"/>
<path d="M409.214 311.461L450.337 326.966L430.276 337.079L389.663 321.573L409.214 311.461Z" fill="#1E2633"/>
<path d="M567.64 223.82L600 210.337V264.944L567.64 277.753V223.82Z" fill="#171E28"/>
<path d="M567.64 223.82L535.281 210.337V264.944L567.64 277.753V223.82Z" fill="#11151E"/>
<path d="M567.64 196.854L600 210.337L567.64 223.82L535.281 210.337L567.64 196.854Z" fill="#1E2633"/>
<path d="M463.82 332.36L494.831 320.899V348.539L463.82 361.348V332.36Z" fill="#171E28"/>
<path d="M463.82 332.36L432.809 320.899V348.539L463.82 361.348V332.36Z" fill="#11151E"/>
<path d="M463.82 308.764L494.831 320.899L463.82 332.36L432.809 320.899L463.82 308.764Z" fill="#1E2633"/>
<path d="M148.467 483.652L167.191 476.489V497.978L148.467 505.618V483.652Z" fill="#171E28"/>
<path d="M148.467 483.652L110.562 468.539V489.438L148.467 505.618V483.652Z" fill="#11151E"/>
<path d="M125.176 459.775L167.191 476.489L148.467 483.652L110.562 468.539L125.176 459.775Z" fill="#1E2633"/>
<path d="M271.685 441.496L297.978 429.741V479.953L271.685 490.787V441.496Z" fill="#171E28"/>
<path d="M271.685 441.496L245.393 429.741V480.506L271.685 490.787V441.496Z" fill="#11151E"/>
<path d="M271.685 420.674L297.978 429.741L271.685 441.496L245.393 429.741L271.685 420.674Z" fill="#1E2633"/>
<path d="M128.764 518.011L146.966 512.701V535.385L128.764 542.022V518.011Z" fill="#171E28"/>
<path d="M128.764 518.011L110.562 512.701V535.635L128.764 542.022V518.011Z" fill="#11151E"/>
<path d="M128.764 508.315L146.966 512.701L128.764 518.011L110.562 512.701L128.764 508.315Z" fill="#1E2633"/>
<path d="M173.258 453.708L199.551 442.921V465.452L173.258 476.629V453.708Z" fill="#171E28"/>
<path d="M173.258 453.708L146.966 442.921V465.782L173.258 476.629V453.708Z" fill="#11151E"/>
<path d="M173.258 430.112L199.551 442.921L173.258 453.708L146.966 442.921L173.258 430.112Z" fill="#1E2633"/>
<path d="M233.933 414.607L260.225 403.82V426.35L233.933 437.528V414.607Z" fill="#171E28"/>
<path d="M233.933 414.607L207.64 403.82V426.68L233.933 437.528V414.607Z" fill="#11151E"/>
<path d="M233.933 391.011L260.225 403.82L233.933 414.607L207.64 403.82L233.933 391.011Z" fill="#1E2633"/>
<path d="M221.798 451.44L249.438 437.878V495.814L221.798 508.315V451.44Z" fill="#171E28"/>
<path d="M221.798 451.44L194.157 437.878V496.453L221.798 508.315V451.44Z" fill="#11151E"/>
<path d="M221.798 427.416L249.438 437.878L221.798 451.44L194.157 437.878L221.798 427.416Z" fill="#1E2633"/>
<path d="M202.41 509.663L222.472 500.899V528.539L202.41 538.652V509.663Z" fill="#171E28"/>
<path d="M202.41 509.663L161.798 494.157V521.798L202.41 538.652V509.663Z" fill="#11151E"/>
<path d="M181.348 485.393L222.472 500.899L202.41 509.663L161.798 494.157L181.348 485.393Z" fill="#1E2633"/>
<path d="M264.944 298.652L284.494 291.236V312.022L264.944 319.551V298.652Z" fill="#171E28"/>
<path d="M264.944 298.652L221.124 283.146V302.697L264.944 319.551V298.652Z" fill="#11151E"/>
<path d="M242.697 276.404L284.494 291.236L264.944 298.652L221.124 283.146L242.697 276.404Z" fill="#1E2633"/>
<path d="M473.933 31.3483L508.315 15.6742V66.1798L473.933 83.5955V31.3483Z" fill="#171E28"/>
<path d="M473.933 31.3483L439.551 15.6742V66.8357L473.933 83.5955V31.3483Z" fill="#11151E"/>
<path d="M473.933 0L508.315 15.6742L473.933 31.3483L439.551 15.6742L473.933 0Z" fill="#1E2633"/>
<path d="M182.697 126.742L208.989 113.933V159.551L182.697 175.281V126.742Z" fill="#171E28"/>
<path d="M182.697 126.742L156.405 113.933V160.143L182.697 175.281V126.742Z" fill="#11151E"/>
<path d="M182.697 102.472L208.989 113.933L182.697 126.742L156.405 113.933L182.697 102.472Z" fill="#1E2633"/>
<path d="M289.574 125.393L315.506 114.757V148.315L289.574 159.101V125.393Z" fill="#171E28"/>
<path d="M289.574 125.393L262.921 114.757V148.315L289.574 159.101V125.393Z" fill="#11151E"/>
<path d="M289.574 105.169L315.506 114.757L289.574 125.393L262.921 114.757L289.574 105.169Z" fill="#1E2633"/>
<path d="M436.854 63.8202L470.562 52.9089V91.7686L436.854 105.169V63.8202Z" fill="#171E28"/>
<path d="M436.854 63.8202L403.146 52.9089V92.2733L436.854 105.169V63.8202Z" fill="#11151E"/>
<path d="M436.854 43.1461L470.562 52.9089L436.854 63.8202L403.146 52.9089L436.854 43.1461Z" fill="#1E2633"/>
<path d="M142.921 301.124L175.281 290.212V329.072L142.921 342.472V301.124Z" fill="#171E28"/>
<path d="M142.921 301.124L110.562 290.212V329.577L142.921 342.472V301.124Z" fill="#11151E"/>
<path d="M142.921 280.449L175.281 290.212L142.921 301.124L110.562 290.212L142.921 280.449Z" fill="#1E2633"/>
<path d="M399.101 89.4382L432.809 78.5268V117.387L399.101 130.787V89.4382Z" fill="#171E28"/>
<path d="M399.101 89.4382L365.393 78.5268V117.891L399.101 130.787V89.4382Z" fill="#11151E"/>
<path d="M399.101 68.764L432.809 78.5268L399.101 89.4382L365.393 78.5268L399.101 68.764Z" fill="#1E2633"/>
<path d="M224.494 312.303L253.483 302.444V334.213L224.494 345.169V312.303Z" fill="#171E28"/>
<path d="M224.494 312.303L195.506 302.444V334.626L224.494 345.169V312.303Z" fill="#11151E"/>
<path d="M224.494 292.584L253.483 302.444L224.494 312.303L195.506 302.444L224.494 292.584Z" fill="#1E2633"/>
<path d="M368.09 42.1348L399.101 30.5056V67.9775L368.09 80.8989V42.1348Z" fill="#171E28"/>
<path d="M368.09 42.1348L337.079 30.5056V68.4642L368.09 80.8989V42.1348Z" fill="#11151E"/>
<path d="M368.09 18.8764L399.101 30.5056L368.09 42.1348L337.079 30.5056L368.09 18.8764Z" fill="#1E2633"/>
<path d="M173.861 171.426L200.899 161.924V188.557L173.861 198.202V171.426Z" fill="#171E28"/>
<path d="M173.861 171.426L113.258 151.559V176.608L173.861 198.202V171.426Z" fill="#11151E"/>
<path d="M143.093 142.921L200.899 161.924L173.861 171.426L113.258 151.559L143.093 142.921Z" fill="#1E2633"/>
<path d="M491.776 395.056L470.562 386.966V407.753L491.776 415.281V395.056Z" fill="#171E28"/>
<path d="M491.776 395.056L539.326 378.876V398.427L515.551 406.854L491.776 415.281V395.056Z" fill="#11151E"/>
<path d="M515.917 372.135L470.562 386.966L491.776 395.056L539.326 378.876L515.917 372.135Z" fill="#1E2633"/>
<path d="M406.517 366.067L426.067 358.652V379.438L406.517 386.966V366.067Z" fill="#171E28"/>
<path d="M406.517 366.067L362.697 350.562V370.112L406.517 386.966V366.067Z" fill="#11151E"/>
<path d="M384.27 343.82L426.067 358.652L406.517 366.067L362.697 350.562L384.27 343.82Z" fill="#1E2633"/>
<path d="M256.18 144.27L288.539 132.809V167.753L256.18 180.674V144.27Z" fill="#171E28"/>
<path d="M256.18 144.27L223.82 132.809V168.239L256.18 180.674V144.27Z" fill="#11151E"/>
<path d="M256.18 118.652L288.539 132.809L256.18 144.27L223.82 132.809L256.18 118.652Z" fill="#1E2633"/>
<path d="M215.73 184.886L248.09 174.326V206.522L215.73 218.427V184.886Z" fill="#171E28"/>
<path d="M215.73 184.886L183.371 174.326V206.97L215.73 218.427V184.886Z" fill="#11151E"/>
<path d="M215.73 163.146L248.09 174.326L215.73 184.886L183.371 174.326L215.73 163.146Z" fill="#1E2633"/>
<path d="M292.584 190.112L323.596 175.281V202.921L292.584 217.753V190.112Z" fill="#171E28"/>
<path d="M292.584 190.112L262.921 175.281V202.921L292.584 217.753V190.112Z" fill="#11151E"/>
<path d="M292.584 164.494L323.596 175.281L292.584 190.112L262.921 175.281L292.584 164.494Z" fill="#1E2633"/>
<path d="M53.9326 183.371L83.5955 172.584V203.146L53.9326 214.382V183.371Z" fill="#171E28"/>
<path d="M53.9326 183.371L24.2697 172.584V203.569L53.9326 214.382V183.371Z" fill="#11151E"/>
<path d="M53.9326 160.449L83.5955 172.584L53.9326 183.371L24.2697 172.584L53.9326 160.449Z" fill="#1E2633"/>
<path d="M566.292 291.236L595.955 280.449V311.011L566.292 322.247V291.236Z" fill="#171E28"/>
<path d="M566.292 291.236L536.629 280.449V311.434L566.292 322.247V291.236Z" fill="#11151E"/>
<path d="M566.292 268.315L595.955 280.449L566.292 291.236L536.629 280.449L566.292 268.315Z" fill="#1E2633"/>
<path d="M301.359 51.2359L330.337 41.1236V71.4607L301.359 82.2472V51.2359Z" fill="#171E28"/>
<path d="M301.359 51.2359L242.697 31.0112V62.0225L301.359 82.2472V51.2359Z" fill="#11151E"/>
<path d="M265.314 17.5281L330.337 41.1236L301.359 51.2359L242.697 31.0112L265.314 17.5281Z" fill="#1E2633"/>
<path d="M353.258 382.247L384.27 370.787V398.427L353.258 411.236V382.247Z" fill="#171E28"/>
<path d="M353.258 382.247L322.247 370.787V398.427L353.258 411.236V382.247Z" fill="#11151E"/>
<path d="M353.258 358.652L384.27 370.787L353.258 382.247L322.247 370.787L353.258 358.652Z" fill="#1E2633"/>
<path d="M461.124 357.978L492.135 346.517V374.157L461.124 386.966V357.978Z" fill="#171E28"/>
<path d="M461.124 357.978L430.112 346.517V374.157L461.124 386.966V357.978Z" fill="#11151E"/>
<path d="M461.124 334.382L492.135 346.517L461.124 357.978L430.112 346.517L461.124 334.382Z" fill="#1E2633"/>
<path d="M389.663 397.079L420.674 385.618V413.258L389.663 426.067V397.079Z" fill="#171E28"/>
<path d="M389.663 397.079L358.652 385.618V413.258L389.663 426.067V397.079Z" fill="#11151E"/>
<path d="M389.663 373.483L420.674 385.618L389.663 397.079L358.652 385.618L389.663 373.483Z" fill="#1E2633"/>
<path d="M317.528 472.834L343.82 460.514V513.14L317.528 524.494V472.834Z" fill="#171E28"/>
<path d="M317.528 472.834L291.236 460.514V513.72L317.528 524.494V472.834Z" fill="#11151E"/>
<path d="M317.528 450.337L343.82 460.514L317.528 472.834L291.236 460.514L317.528 450.337Z" fill="#1E2633"/>
<path d="M291.91 500.558L323.596 485.56V516.75L291.91 531.236V500.558Z" fill="#171E28"/>
<path d="M291.91 500.558L260.225 485.56V517.176L291.91 531.236V500.558Z" fill="#11151E"/>
<path d="M291.91 470.562L323.596 485.56L291.91 500.558L260.225 485.56L291.91 470.562Z" fill="#1E2633"/>
<path d="M256.854 500.821L283.146 489.067V539.279L256.854 550.112V500.821Z" fill="#171E28"/>
<path d="M256.854 500.821L230.562 489.067V539.832L256.854 550.112V500.821Z" fill="#11151E"/>
<path d="M256.854 480L283.146 489.067L256.854 500.821L230.562 489.067L256.854 480Z" fill="#1E2633"/>
<path d="M223.146 544.045L249.438 533.258V555.789L223.146 566.966V544.045Z" fill="#171E28"/>
<path d="M223.146 544.045L196.854 533.258V556.119L223.146 566.966V544.045Z" fill="#11151E"/>
<path d="M223.146 520.449L249.438 533.258L223.146 544.045L196.854 533.258L223.146 520.449Z" fill="#1E2633"/>
<path d="M427.416 374.831L459.775 363.371V429.607L427.416 440.899V374.831Z" fill="#171E28"/>
<path d="M427.416 374.831L395.056 363.371V430.337L427.416 440.899V374.831Z" fill="#11151E"/>
<path d="M427.416 350.562L459.775 363.371L427.416 374.831L395.056 363.371L427.416 350.562Z" fill="#1E2633"/>
<path d="M422.697 466.997L440.899 459.35V492.015L422.697 501.573V466.997Z" fill="#171E28"/>
<path d="M422.697 466.997L404.494 459.35V492.375L422.697 501.573V466.997Z" fill="#11151E"/>
<path d="M422.697 453.034L440.899 459.35L422.697 466.997L404.494 459.35L422.697 453.034Z" fill="#1E2633"/>
<path d="M437.528 485.873L455.73 478.227V510.891L437.528 520.449V485.873Z" fill="#171E28"/>
<path d="M437.528 485.873L419.326 478.227V511.251L437.528 520.449V485.873Z" fill="#11151E"/>
<path d="M437.528 471.91L455.73 478.227L437.528 485.873L419.326 478.227L437.528 471.91Z" fill="#1E2633"/>
<path d="M514.382 408.798L532.584 403.488V426.171L514.382 432.809V408.798Z" fill="#171E28"/>
<path d="M514.382 408.798L496.18 403.488V426.421L514.382 432.809V408.798Z" fill="#11151E"/>
<path d="M514.382 399.101L532.584 403.488L514.382 408.798L496.18 403.488L514.382 399.101Z" fill="#1E2633"/>
<path d="M223.146 540.933L241.348 535.623V558.306L223.146 564.944V540.933Z" fill="#171E28"/>
<path d="M223.146 540.933L204.944 535.623V558.556L223.146 564.944V540.933Z" fill="#11151E"/>
<path d="M223.146 531.236L241.348 535.623L223.146 540.933L204.944 535.623L223.146 531.236Z" fill="#1E2633"/>
<path d="M170.562 526.101L188.764 520.791V543.475L170.562 550.112V526.101Z" fill="#171E28"/>
<path d="M170.562 526.101L152.36 520.791V543.725L170.562 550.112V526.101Z" fill="#11151E"/>
<path d="M170.562 516.404L188.764 520.791L170.562 526.101L152.36 520.791L170.562 516.404Z" fill="#1E2633"/>
<path d="M254.831 194.494L287.191 182.865V220.337L254.831 233.258V194.494Z" fill="#171E28"/>
<path d="M254.831 194.494L222.472 182.865V220.824L254.831 233.258V194.494Z" fill="#11151E"/>
<path d="M254.831 171.236L287.191 182.865L254.831 194.494L222.472 182.865L254.831 171.236Z" fill="#1E2633"/>
<path d="M465.169 418.273L496.18 409.989V445.376L465.169 455.73V418.273Z" fill="#171E28"/>
<path d="M465.169 418.273L434.157 409.989V445.766L465.169 455.73V418.273Z" fill="#11151E"/>
<path d="M465.169 403.146L496.18 409.989L465.169 418.273L434.157 409.989L465.169 403.146Z" fill="#1E2633"/>
<path d="M182.697 314.157L208.989 301.348V346.966L182.697 362.697V314.157Z" fill="#171E28"/>
<path d="M182.697 314.157L156.405 301.348V347.559L182.697 362.697V314.157Z" fill="#11151E"/>
<path d="M182.697 289.888L208.989 301.348L182.697 314.157L156.405 301.348L182.697 289.888Z" fill="#1E2633"/>
<path d="M55.9551 331.685L83.5955 321.573V351.91L55.9551 362.697V331.685Z" fill="#171E28"/>
<path d="M55.9551 331.685L0 311.461V342.472L55.9551 362.697V331.685Z" fill="#11151E"/>
<path d="M21.573 297.978L83.5955 321.573L55.9551 331.685L0 311.461L21.573 297.978Z" fill="#1E2633"/>
<path d="M336.404 72.809L357.303 62.8464V98.3271L336.404 107.191V72.809Z" fill="#171E28"/>
<path d="M336.404 72.809L315.506 62.8464V98.7879L336.404 107.191V72.809Z" fill="#11151E"/>
<path d="M336.404 53.9326L357.303 62.8464L336.404 72.809L315.506 62.8464L336.404 53.9326Z" fill="#1E2633"/>
<path d="M476.629 453.202L505.618 438.287V486.348L476.629 502.921V453.202Z" fill="#171E28"/>
<path d="M476.629 453.202L447.64 438.287V486.972L476.629 502.921V453.202Z" fill="#11151E"/>
<path d="M476.629 423.371L505.618 438.287L476.629 453.202L447.64 438.287L476.629 423.371Z" fill="#1E2633"/>
<path d="M78.8003 383.876L97.0786 376.713V398.202L78.8003 405.843V383.876Z" fill="#171E28"/>
<path d="M78.8003 383.876L41.7977 368.764V389.663L78.8003 405.843V383.876Z" fill="#11151E"/>
<path d="M56.0638 360L97.0786 376.713L78.8003 383.876L41.7977 368.764L56.0638 360Z" fill="#1E2633"/>
<path d="M103.82 354.275L129.438 343.332V366.188L103.82 377.528V354.275Z" fill="#171E28"/>
<path d="M103.82 354.275L78.2023 343.332V366.523L103.82 377.528V354.275Z" fill="#11151E"/>
<path d="M103.82 330.337L129.438 343.332L103.82 354.275L78.2023 343.332L103.82 330.337Z" fill="#1E2633"/>
<path d="M235.281 355.281L254.831 347.865V368.652L235.281 376.18V355.281Z" fill="#171E28"/>
<path d="M235.281 355.281L191.461 339.775V359.326L235.281 376.18V355.281Z" fill="#11151E"/>
<path d="M213.034 333.034L254.831 347.865L235.281 355.281L191.461 339.775L213.034 333.034Z" fill="#1E2633"/>
<path d="M198.876 372.978L227.865 363.118V394.888L198.876 405.843V372.978Z" fill="#171E28"/>
<path d="M198.876 372.978L169.888 363.118V395.3L198.876 405.843V372.978Z" fill="#11151E"/>
<path d="M198.876 353.258L227.865 363.118L198.876 372.978L169.888 363.118L198.876 353.258Z" fill="#1E2633"/>
<path d="M157.079 374.831L183.371 362.022V407.64L157.079 423.371V374.831Z" fill="#171E28"/>
<path d="M157.079 374.831L130.786 362.022V408.233L157.079 423.371V374.831Z" fill="#11151E"/>
<path d="M157.079 350.562L183.371 362.022L157.079 374.831L130.786 362.022L157.079 350.562Z" fill="#1E2633"/>
<path d="M399 468L258.075 387.403C255.779 386.089 255.713 382.801 257.956 381.398L370.527 310.926C372.882 309.452 372.663 305.953 370.142 304.784L272.62 259.569C269.955 258.334 269.905 254.563 272.537 253.258L444.072 168.188C446.685 166.892 446.66 163.158 444.031 161.896L364 123.5" stroke="url(#paint0_linear_6_2036)" stroke-width="3.5" stroke-linecap="round"/>
<ellipse cx="356.227" cy="121.334" rx="13.7779" ry="8.61118" fill="#07BCCE" fill-opacity="0.6"/>
<ellipse cx="356.229" cy="121.333" rx="10.3334" ry="6.02783" fill="#69FE97"/>
<g filter="url(#filter0_f_6_2036)">
<ellipse cx="356.229" cy="121.333" rx="10.3334" ry="6.02783" fill="#69FE97"/>
</g>
<ellipse cx="356.231" cy="121.334" rx="6.88894" ry="3.44447" fill="#5468E4"/>
<path d="M365.158 101.994L365.159 101.993C369.745 97.5516 369.745 90.3484 365.159 85.9072C360.575 81.4691 353.147 81.4691 348.563 85.9072C343.977 90.3484 343.977 97.5516 348.563 101.993L348.688 101.864L348.563 101.993C348.956 102.374 349.444 102.841 350.027 103.395L350.028 103.395L354.661 107.76L354.662 107.761C355.889 108.909 357.833 108.91 359.06 107.761C360.913 106.026 362.42 104.607 363.582 103.503L363.582 103.502L365.158 101.994ZM350.221 87.5291C353.888 83.979 359.834 83.979 363.5 87.5291C367.163 91.0759 367.163 96.8241 363.5 100.371C363.079 100.779 362.558 101.278 361.936 101.869C361.936 101.869 361.935 101.869 361.935 101.87L357.43 106.112C357.43 106.112 357.43 106.112 357.43 106.112C357.113 106.409 356.609 106.408 356.292 106.112C354.647 104.571 353.281 103.286 352.194 102.256C352.194 102.256 352.194 102.256 352.194 102.256L350.221 100.371C350.221 100.371 350.221 100.371 350.221 100.371C346.559 96.8236 346.559 91.0758 350.221 87.5291ZM361.025 94.3038C361.025 92.0683 359.155 90.2659 356.861 90.2659C354.567 90.2659 352.697 92.0683 352.697 94.3038C352.697 96.5392 354.567 98.3415 356.861 98.3415C359.155 98.3415 361.025 96.5392 361.025 94.3038ZM355.048 94.3038C355.048 93.3427 355.854 92.5538 356.861 92.5538C357.868 92.5538 358.674 93.3427 358.674 94.3038C358.674 95.2648 357.868 96.0536 356.861 96.0536C355.854 96.0536 355.048 95.2648 355.048 94.3038Z" fill="url(#paint1_linear_6_2036)" stroke="url(#paint2_linear_6_2036)" stroke-width="0.36"/>
<path d="M423.018 473.722C423.018 475.521 421.819 477.473 419.195 479.079C416.606 480.664 412.902 481.71 408.704 481.71C404.506 481.71 400.802 480.664 398.213 479.079C395.589 477.473 394.39 475.521 394.39 473.722C394.39 471.922 395.589 469.971 398.213 468.365C400.802 466.779 404.506 465.734 408.704 465.734C412.902 465.734 416.606 466.779 419.195 468.365C421.819 469.971 423.018 471.922 423.018 473.722Z" stroke="#69FF97" stroke-width="4"/>
<g filter="url(#filter1_f_6_2036)">
<path d="M423.018 473.722C423.018 475.521 421.819 477.473 419.195 479.079C416.606 480.664 412.902 481.71 408.704 481.71C404.506 481.71 400.802 480.664 398.213 479.079C395.589 477.473 394.39 475.521 394.39 473.722C394.39 471.922 395.589 469.971 398.213 468.365C400.802 466.779 404.506 465.734 408.704 465.734C412.902 465.734 416.606 466.779 419.195 468.365C421.819 469.971 423.018 471.922 423.018 473.722Z" stroke="#69FF97" stroke-width="4"/>
</g>
<defs>
<filter id="filter0_f_6_2036" x="337.895" y="107.305" width="36.6668" height="28.0557" filterUnits="userSpaceOnUse" color-interpolation-filters="sRGB">
<feFlood flood-opacity="0" result="BackgroundImageFix"/>
<feBlend mode="normal" in="SourceGraphic" in2="BackgroundImageFix" result="shape"/>
<feGaussianBlur stdDeviation="4" result="effect1_foregroundBlur_6_2036"/>
</filter>
<filter id="filter1_f_6_2036" x="373.39" y="444.734" width="70.6278" height="57.9762" filterUnits="userSpaceOnUse" color-interpolation-filters="sRGB">
<feFlood flood-opacity="0" result="BackgroundImageFix"/>
<feBlend mode="normal" in="SourceGraphic" in2="BackgroundImageFix" result="shape"/>
<feGaussianBlur stdDeviation="9.5" result="effect1_foregroundBlur_6_2036"/>
</filter>
<linearGradient id="paint0_linear_6_2036" x1="351.75" y1="123.5" x2="351.75" y2="468" gradientUnits="userSpaceOnUse">
<stop stop-color="#6E4BEE"/>
<stop offset="1" stop-color="#00EAFF"/>
</linearGradient>
<linearGradient id="paint1_linear_6_2036" x1="356.861" y1="82.7586" x2="356.861" y2="108.442" gradientUnits="userSpaceOnUse">
<stop stop-color="#69FE97"/>
<stop offset="1" stop-color="#07BCCE"/>
</linearGradient>
<linearGradient id="paint2_linear_6_2036" x1="356.861" y1="82.7586" x2="356.861" y2="108.442" gradientUnits="userSpaceOnUse">
<stop stop-color="#69FE97"/>
<stop offset="1" stop-color="#69FE97" stop-opacity="0"/>
</linearGradient>
</defs>
</svg>
